<svg width="184" height="47" viewBox="0 0 184 47" fill="none" xmlns="http://www.w3.org/2000/svg">
<g filter="url(#filter0_b_527_84)">
<rect x="126" width="58" height="15" rx="7.5" fill="#A2A2A2" fill-opacity="0.2"/>
</g>
<path d="M136.857 10V4.18182H139.187C139.615 4.18182 139.972 4.24527 140.258 4.37216C140.544 4.49905 140.759 4.67519 140.903 4.90057C141.047 5.12405 141.119 5.38163 141.119 5.6733C141.119 5.90057 141.073 6.10038 140.982 6.27273C140.891 6.44318 140.766 6.58333 140.607 6.69318C140.45 6.80114 140.27 6.87784 140.067 6.9233V6.98011C140.289 6.98958 140.496 7.05208 140.69 7.16761C140.885 7.28314 141.043 7.44508 141.164 7.65341C141.285 7.85985 141.346 8.10606 141.346 8.39205C141.346 8.70076 141.269 8.97633 141.116 9.21875C140.964 9.45928 140.74 9.64962 140.442 9.78977C140.145 9.92992 139.779 10 139.343 10H136.857ZM138.087 8.99432H139.09C139.433 8.99432 139.683 8.92898 139.84 8.7983C139.997 8.66572 140.076 8.48958 140.076 8.26989C140.076 8.1089 140.037 7.96686 139.96 7.84375C139.882 7.72064 139.771 7.62405 139.627 7.55398C139.485 7.4839 139.316 7.44886 139.119 7.44886H138.087V8.99432ZM138.087 6.61648H138.999C139.168 6.61648 139.317 6.58712 139.448 6.52841C139.581 6.4678 139.685 6.38258 139.761 6.27273C139.838 6.16288 139.877 6.03125 139.877 5.87784C139.877 5.66761 139.802 5.49811 139.653 5.36932C139.505 5.24053 139.295 5.17614 139.022 5.17614H138.087V6.61648ZM143.334 4.18182V10H142.124V4.18182H143.334ZM147.102 8.14205V5.63636H148.312V10H147.15V9.20739H147.104C147.006 9.46307 146.842 9.66856 146.613 9.82386C146.386 9.97917 146.108 10.0568 145.781 10.0568C145.489 10.0568 145.232 9.99053 145.011 9.85795C144.789 9.72538 144.616 9.53693 144.491 9.29261C144.368 9.0483 144.305 8.75568 144.303 8.41477V5.63636H145.513V8.19886C145.515 8.45644 145.585 8.66004 145.721 8.80966C145.857 8.95928 146.04 9.03409 146.269 9.03409C146.415 9.03409 146.551 9.00095 146.678 8.93466C146.805 8.86648 146.907 8.7661 146.985 8.63352C147.065 8.50095 147.103 8.33712 147.102 8.14205ZM151.268 10.0852C150.82 10.0852 150.433 9.99432 150.109 9.8125C149.787 9.62879 149.539 9.36932 149.365 9.03409C149.191 8.69697 149.104 8.2983 149.104 7.83807C149.104 7.3892 149.191 6.99527 149.365 6.65625C149.539 6.31723 149.785 6.05303 150.101 5.86364C150.419 5.67424 150.792 5.57955 151.22 5.57955C151.508 5.57955 151.776 5.62595 152.024 5.71875C152.274 5.80966 152.492 5.94697 152.678 6.13068C152.865 6.31439 153.011 6.54545 153.115 6.82386C153.219 7.10038 153.271 7.42424 153.271 7.79545V8.12784H149.587V7.37784H152.132C152.132 7.2036 152.094 7.04924 152.018 6.91477C151.943 6.7803 151.838 6.67519 151.703 6.59943C151.571 6.52178 151.416 6.48295 151.24 6.48295C151.056 6.48295 150.893 6.52557 150.751 6.6108C150.611 6.69413 150.501 6.80682 150.422 6.94886C150.342 7.08902 150.302 7.24527 150.3 7.41761V8.13068C150.3 8.34659 150.339 8.53314 150.419 8.69034C150.5 8.84754 150.615 8.96875 150.763 9.05398C150.911 9.1392 151.086 9.18182 151.288 9.18182C151.423 9.18182 151.546 9.16288 151.658 9.125C151.769 9.08712 151.865 9.0303 151.945 8.95455C152.024 8.87879 152.085 8.78598 152.126 8.67614L153.246 8.75C153.189 9.01894 153.072 9.25379 152.896 9.45455C152.722 9.65341 152.497 9.80871 152.22 9.92045C151.946 10.0303 151.628 10.0852 151.268 10.0852ZM156.382 5.63636V6.54545H153.754V5.63636H156.382ZM154.351 4.59091H155.561V8.65909C155.561 8.77083 155.578 8.85795 155.612 8.92045C155.646 8.98106 155.694 9.02367 155.754 9.0483C155.817 9.07292 155.889 9.08523 155.97 9.08523C156.027 9.08523 156.084 9.08049 156.141 9.07102C156.197 9.05966 156.241 9.05114 156.271 9.04545L156.462 9.94602C156.401 9.96496 156.316 9.98674 156.206 10.0114C156.096 10.0379 155.963 10.054 155.805 10.0597C155.514 10.071 155.258 10.0322 155.038 9.94318C154.821 9.85417 154.651 9.71591 154.53 9.52841C154.409 9.34091 154.349 9.10417 154.351 8.81818V4.59091ZM159.095 10.0852C158.654 10.0852 158.272 9.99148 157.95 9.80398C157.63 9.61458 157.383 9.35133 157.209 9.0142C157.035 8.67519 156.947 8.2822 156.947 7.83523C156.947 7.38447 157.035 6.99053 157.209 6.65341C157.383 6.31439 157.63 6.05114 157.95 5.86364C158.272 5.67424 158.654 5.57955 159.095 5.57955C159.536 5.57955 159.917 5.67424 160.237 5.86364C160.559 6.05114 160.807 6.31439 160.982 6.65341C161.156 6.99053 161.243 7.38447 161.243 7.83523C161.243 8.2822 161.156 8.67519 160.982 9.0142C160.807 9.35133 160.559 9.61458 160.237 9.80398C159.917 9.99148 159.536 10.0852 159.095 10.0852ZM159.101 9.14773C159.302 9.14773 159.469 9.09091 159.604 8.97727C159.738 8.86174 159.839 8.70455 159.908 8.50568C159.978 8.30682 160.013 8.08049 160.013 7.8267C160.013 7.57292 159.978 7.34659 159.908 7.14773C159.839 6.94886 159.738 6.79167 159.604 6.67614C159.469 6.56061 159.302 6.50284 159.101 6.50284C158.898 6.50284 158.728 6.56061 158.589 6.67614C158.453 6.79167 158.35 6.94886 158.28 7.14773C158.212 7.34659 158.178 7.57292 158.178 7.8267C158.178 8.08049 158.212 8.30682 158.28 8.50568C158.35 8.70455 158.453 8.86174 158.589 8.97727C158.728 9.09091 158.898 9.14773 159.101 9.14773ZM164.001 10.0852C163.56 10.0852 163.179 9.99148 162.857 9.80398C162.536 9.61458 162.289 9.35133 162.115 9.0142C161.941 8.67519 161.854 8.2822 161.854 7.83523C161.854 7.38447 161.941 6.99053 162.115 6.65341C162.289 6.31439 162.536 6.05114 162.857 5.86364C163.179 5.67424 163.56 5.57955 164.001 5.57955C164.443 5.57955 164.823 5.67424 165.143 5.86364C165.465 6.05114 165.714 6.31439 165.888 6.65341C166.062 6.99053 166.149 7.38447 166.149 7.83523C166.149 8.2822 166.062 8.67519 165.888 9.0142C165.714 9.35133 165.465 9.61458 165.143 9.80398C164.823 9.99148 164.443 10.0852 164.001 10.0852ZM164.007 9.14773C164.208 9.14773 164.375 9.09091 164.51 8.97727C164.644 8.86174 164.746 8.70455 164.814 8.50568C164.884 8.30682 164.919 8.08049 164.919 7.8267C164.919 7.57292 164.884 7.34659 164.814 7.14773C164.746 6.94886 164.644 6.79167 164.51 6.67614C164.375 6.56061 164.208 6.50284 164.007 6.50284C163.804 6.50284 163.634 6.56061 163.496 6.67614C163.359 6.79167 163.256 6.94886 163.186 7.14773C163.118 7.34659 163.084 7.57292 163.084 7.8267C163.084 8.08049 163.118 8.30682 163.186 8.50568C163.256 8.70455 163.359 8.86174 163.496 8.97727C163.634 9.09091 163.804 9.14773 164.007 9.14773ZM169.257 5.63636V6.54545H166.629V5.63636H169.257ZM167.226 4.59091H168.436V8.65909C168.436 8.77083 168.453 8.85795 168.487 8.92045C168.521 8.98106 168.569 9.02367 168.629 9.0483C168.692 9.07292 168.764 9.08523 168.845 9.08523C168.902 9.08523 168.959 9.08049 169.016 9.07102C169.072 9.05966 169.116 9.05114 169.146 9.04545L169.337 9.94602C169.276 9.96496 169.191 9.98674 169.081 10.0114C168.971 10.0379 168.838 10.054 168.68 10.0597C168.389 10.071 168.133 10.0322 167.913 9.94318C167.696 9.85417 167.526 9.71591 167.405 9.52841C167.284 9.34091 167.224 9.10417 167.226 8.81818V4.59091ZM171.349 7.47727V10H170.139V4.18182H171.315V6.40625H171.366C171.465 6.14867 171.624 5.94697 171.844 5.80114C172.063 5.65341 172.339 5.57955 172.67 5.57955C172.973 5.57955 173.238 5.64583 173.463 5.77841C173.69 5.90909 173.866 6.09754 173.991 6.34375C174.118 6.58807 174.181 6.88068 174.179 7.22159V10H172.969V7.4375C172.971 7.16856 172.902 6.95928 172.764 6.80966C172.628 6.66004 172.437 6.58523 172.19 6.58523C172.026 6.58523 171.88 6.62027 171.753 6.69034C171.628 6.76042 171.529 6.86269 171.457 6.99716C171.387 7.12973 171.351 7.28977 171.349 7.47727Z" fill="white"/>
<g filter="url(#filter1_b_527_84)">
<rect x="63" width="58" height="15" rx="7.5" fill="#A2A2A2" fill-opacity="0.2"/>
</g>
<g filter="url(#filter2_b_527_84)">
<rect width="58" height="15" rx="7.5" fill="#A2A2A2" fill-opacity="0.2"/>
</g>
<path d="M25.1424 5.85511C25.1197 5.62595 25.0221 5.44792 24.8498 5.32102C24.6774 5.19413 24.4435 5.13068 24.1481 5.13068C23.9473 5.13068 23.7778 5.15909 23.6396 5.21591C23.5013 5.27083 23.3952 5.34754 23.3214 5.44602C23.2494 5.54451 23.2134 5.65625 23.2134 5.78125C23.2096 5.88542 23.2314 5.97633 23.2788 6.05398C23.328 6.13163 23.3952 6.19886 23.4805 6.25568C23.5657 6.31061 23.6642 6.3589 23.7759 6.40057C23.8877 6.44034 24.007 6.47443 24.1339 6.50284L24.6566 6.62784C24.9104 6.68466 25.1433 6.76042 25.3555 6.85511C25.5676 6.94981 25.7513 7.06629 25.9066 7.20455C26.0619 7.3428 26.1822 7.50568 26.2674 7.69318C26.3545 7.88068 26.399 8.09564 26.4009 8.33807C26.399 8.69413 26.3081 9.00284 26.1282 9.2642C25.9502 9.52367 25.6926 9.72538 25.3555 9.86932C25.0202 10.0114 24.6159 10.0824 24.1424 10.0824C23.6727 10.0824 23.2636 10.0104 22.9151 9.86648C22.5685 9.72254 22.2977 9.50947 22.1026 9.22727C21.9094 8.94318 21.8081 8.59186 21.7987 8.1733H22.989C23.0022 8.36837 23.0581 8.53125 23.1566 8.66193C23.257 8.79072 23.3905 8.88826 23.5572 8.95455C23.7257 9.01894 23.9161 9.05114 24.1282 9.05114C24.3365 9.05114 24.5174 9.02083 24.6708 8.96023C24.8261 8.89962 24.9464 8.81534 25.0316 8.70739C25.1168 8.59943 25.1594 8.47538 25.1594 8.33523C25.1594 8.20455 25.1206 8.0947 25.043 8.00568C24.9672 7.91667 24.8555 7.84091 24.7077 7.77841C24.5619 7.71591 24.3829 7.65909 24.1708 7.60795L23.5373 7.44886C23.0468 7.32955 22.6594 7.14299 22.3754 6.8892C22.0913 6.63542 21.9502 6.29356 21.9521 5.86364C21.9502 5.51136 22.0439 5.2036 22.2333 4.94034C22.4246 4.67708 22.6869 4.47159 23.0202 4.32386C23.3536 4.17614 23.7324 4.10227 24.1566 4.10227C24.5884 4.10227 24.9653 4.17614 25.2873 4.32386C25.6112 4.47159 25.863 4.67708 26.043 4.94034C26.2229 5.2036 26.3157 5.50852 26.3214 5.85511H25.1424ZM29.4244 7.97727H30.4698L30.9954 8.65341L31.5124 9.25568L32.4869 10.4773H31.3391L30.6687 9.65341L30.3249 9.16477L29.4244 7.97727ZM32.5749 7.09091C32.5749 7.72538 32.4547 8.26515 32.2141 8.71023C31.9755 9.1553 31.6497 9.49527 31.2369 9.73011C30.8259 9.96307 30.3638 10.0795 29.8505 10.0795C29.3335 10.0795 28.8694 9.96212 28.4585 9.72727C28.0475 9.49242 27.7227 9.15246 27.484 8.70739C27.2454 8.26231 27.1261 7.72348 27.1261 7.09091C27.1261 6.45644 27.2454 5.91667 27.484 5.47159C27.7227 5.02652 28.0475 4.6875 28.4585 4.45455C28.8694 4.2197 29.3335 4.10227 29.8505 4.10227C30.3638 4.10227 30.8259 4.2197 31.2369 4.45455C31.6497 4.6875 31.9755 5.02652 32.2141 5.47159C32.4547 5.91667 32.5749 6.45644 32.5749 7.09091ZM31.3278 7.09091C31.3278 6.67992 31.2662 6.33333 31.1431 6.05114C31.0219 5.76894 30.8505 5.55492 30.6289 5.40909C30.4073 5.26326 30.1478 5.19034 29.8505 5.19034C29.5531 5.19034 29.2937 5.26326 29.0721 5.40909C28.8505 5.55492 28.6781 5.76894 28.555 6.05114C28.4338 6.33333 28.3732 6.67992 28.3732 7.09091C28.3732 7.50189 28.4338 7.84848 28.555 8.13068C28.6781 8.41288 28.8505 8.62689 29.0721 8.77273C29.2937 8.91856 29.5531 8.99148 29.8505 8.99148C30.1478 8.99148 30.4073 8.91856 30.6289 8.77273C30.8505 8.62689 31.0219 8.41288 31.1431 8.13068C31.2662 7.84848 31.3278 7.50189 31.3278 7.09091ZM33.4862 10V4.18182H34.7163V8.9858H37.2106V10H33.4862Z" fill="white"/>
<path d="M24.2297 45L27.2446 39.0341V38.9844H23.7325V37.7273H28.8355V39.0021L25.817 45H24.2297ZM32.4479 45.0994C31.946 45.0994 31.4986 45.0071 31.1056 44.8224C30.7149 44.6378 30.4048 44.3833 30.1752 44.0589C29.9455 43.7346 29.826 43.3629 29.8165 42.9439H31.308C31.3245 43.2256 31.4429 43.4541 31.6631 43.6293C31.8833 43.8045 32.1449 43.892 32.4479 43.892C32.6894 43.892 32.9024 43.8388 33.0871 43.7322C33.2741 43.6233 33.4197 43.473 33.5239 43.2812C33.6304 43.0871 33.6837 42.8646 33.6837 42.6136C33.6837 42.358 33.6292 42.133 33.5203 41.9389C33.4138 41.7448 33.2658 41.5933 33.0764 41.4844C32.887 41.3755 32.6704 41.3198 32.4266 41.3175C32.2135 41.3175 32.0064 41.3613 31.8051 41.4489C31.6063 41.5365 31.4512 41.656 31.3399 41.8075L29.9727 41.5625L30.3172 37.7273H34.7632V38.9844H31.585L31.3968 40.8061H31.4394C31.5672 40.6262 31.7602 40.477 32.0182 40.3587C32.2762 40.2403 32.5651 40.1811 32.8847 40.1811C33.3227 40.1811 33.7133 40.2841 34.0566 40.4901C34.3998 40.696 34.6709 40.9789 34.8698 41.3388C35.0686 41.6963 35.1669 42.1082 35.1645 42.5746C35.1669 43.0646 35.0532 43.5002 34.8236 43.8814C34.5963 44.2602 34.2779 44.5585 33.8683 44.7763C33.4611 44.9917 32.9877 45.0994 32.4479 45.0994Z" fill="#FFCC4D"/>
<path d="M92.5231 45.0994C92.0212 45.0994 91.5737 45.0071 91.1808 44.8224C90.7901 44.6378 90.48 44.3833 90.2504 44.0589C90.0207 43.7346 89.9012 43.3629 89.8917 42.9439H91.3832C91.3997 43.2256 91.5181 43.4541 91.7383 43.6293C91.9585 43.8045 92.2201 43.892 92.5231 43.892C92.7646 43.892 92.9776 43.8388 93.1623 43.7322C93.3493 43.6233 93.4949 43.473 93.5991 43.2812C93.7056 43.0871 93.7589 42.8646 93.7589 42.6136C93.7589 42.358 93.7044 42.133 93.5955 41.9389C93.489 41.7448 93.341 41.5933 93.1516 41.4844C92.9622 41.3755 92.7456 41.3198 92.5018 41.3175C92.2887 41.3175 92.0816 41.3613 91.8803 41.4489C91.6815 41.5365 91.5264 41.656 91.4151 41.8075L90.0479 41.5625L90.3924 37.7273H94.8384V38.9844H91.6602L91.4719 40.8061H91.5146C91.6424 40.6262 91.8353 40.477 92.0934 40.3587C92.3514 40.2403 92.6403 40.1811 92.9599 40.1811C93.3978 40.1811 93.7885 40.2841 94.1317 40.4901C94.475 40.696 94.7461 40.9789 94.945 41.3388C95.1438 41.6963 95.2421 42.1082 95.2397 42.5746C95.2421 43.0646 95.1284 43.5002 94.8988 43.8814C94.6715 44.2602 94.3531 44.5585 93.9435 44.7763C93.5363 44.9917 93.0629 45.0994 92.5231 45.0994Z" fill="#51CF8B"/>
<path d="M148.998 45V43.892L151.586 41.495C151.807 41.282 151.991 41.0902 152.14 40.9197C152.292 40.7493 152.407 40.5824 152.485 40.419C152.563 40.2533 152.602 40.0746 152.602 39.8828C152.602 39.6697 152.554 39.4863 152.456 39.3324C152.359 39.1761 152.227 39.0566 152.059 38.9737C151.891 38.8885 151.7 38.8459 151.487 38.8459C151.265 38.8459 151.07 38.8909 150.905 38.9808C150.739 39.0708 150.611 39.1998 150.521 39.3679C150.431 39.536 150.386 39.736 150.386 39.968H148.927C148.927 39.4922 149.034 39.0791 149.25 38.7287C149.465 38.3783 149.767 38.1072 150.155 37.9155C150.544 37.7237 150.991 37.6278 151.498 37.6278C152.019 37.6278 152.472 37.7202 152.858 37.9048C153.246 38.0871 153.548 38.3404 153.763 38.6648C153.979 38.9891 154.086 39.3608 154.086 39.7798C154.086 40.0545 154.032 40.3255 153.923 40.593C153.817 40.8606 153.626 41.1577 153.351 41.4844C153.077 41.8087 152.69 42.1982 152.19 42.6527L151.128 43.6932V43.7429H154.182V45H148.998ZM158.148 45.1598C157.537 45.1574 157.012 45.0071 156.571 44.7088C156.133 44.4105 155.796 43.9785 155.559 43.4126C155.325 42.8468 155.209 42.1662 155.211 41.3707C155.211 40.5777 155.328 39.9018 155.563 39.343C155.8 38.7843 156.137 38.3594 156.575 38.0682C157.015 37.7746 157.54 37.6278 158.148 37.6278C158.757 37.6278 159.28 37.7746 159.718 38.0682C160.158 38.3617 160.497 38.7879 160.733 39.3466C160.97 39.9029 161.087 40.5777 161.085 41.3707C161.085 42.1686 160.967 42.8504 160.73 43.4162C160.495 43.982 160.159 44.4141 159.721 44.7124C159.283 45.0107 158.759 45.1598 158.148 45.1598ZM158.148 43.8849C158.565 43.8849 158.897 43.6754 159.146 43.2564C159.395 42.8374 159.518 42.2088 159.515 41.3707C159.515 40.8191 159.458 40.3598 159.345 39.9929C159.234 39.6259 159.075 39.3501 158.869 39.1655C158.665 38.9808 158.425 38.8885 158.148 38.8885C157.734 38.8885 157.402 39.0956 157.154 39.5099C156.905 39.9242 156.78 40.5445 156.777 41.3707C156.777 41.9295 156.833 42.3958 156.944 42.7699C157.058 43.1416 157.218 43.4209 157.424 43.608C157.63 43.7926 157.871 43.8849 158.148 43.8849Z" fill="#DC54DF"/>
<path d="M71.5057 10V4.18182H72.7358V6.58239H75.233V4.18182H76.4602V10H75.233V7.59659H72.7358V10H71.5057ZM77.2528 5.19602V4.18182H82.0312V5.19602H80.25V10H79.0341V5.19602H77.2528ZM82.8182 4.18182H84.3352L85.9375 8.09091H86.0057L87.608 4.18182H89.125V10H87.9318V6.21307H87.8835L86.3778 9.97159H85.5653L84.0597 6.19886H84.0114V10H82.8182V4.18182ZM90.1385 10V4.18182H91.3686V8.9858H93.8629V10H90.1385ZM97.1889 3.90909L95.3139 10.875H94.2713L96.1463 3.90909H97.1889ZM102.928 6.21875H101.684C101.661 6.05777 101.615 5.91477 101.545 5.78977C101.475 5.66288 101.385 5.55492 101.275 5.46591C101.165 5.37689 101.038 5.30871 100.894 5.26136C100.752 5.21402 100.598 5.19034 100.431 5.19034C100.13 5.19034 99.8677 5.26515 99.6442 5.41477C99.4207 5.5625 99.2474 5.77841 99.1243 6.0625C99.0012 6.3447 98.9396 6.6875 98.9396 7.09091C98.9396 7.50568 99.0012 7.85417 99.1243 8.13636C99.2493 8.41856 99.4235 8.63163 99.647 8.77557C99.8705 8.91951 100.129 8.99148 100.423 8.99148C100.587 8.99148 100.74 8.9697 100.88 8.92614C101.022 8.88258 101.148 8.81913 101.258 8.7358C101.368 8.65057 101.459 8.54735 101.531 8.42614C101.604 8.30492 101.656 8.16667 101.684 8.01136L102.928 8.01705C102.896 8.28409 102.816 8.54167 102.687 8.78977C102.56 9.03598 102.388 9.25663 102.173 9.4517C101.959 9.64489 101.703 9.7983 101.406 9.91193C101.11 10.0237 100.776 10.0795 100.403 10.0795C99.8838 10.0795 99.4197 9.96212 99.0107 9.72727C98.6035 9.49242 98.2815 9.15246 98.0447 8.70739C97.8099 8.26231 97.6925 7.72348 97.6925 7.09091C97.6925 6.45644 97.8118 5.91667 98.0504 5.47159C98.2891 5.02652 98.6129 4.6875 99.022 4.45455C99.4311 4.2197 99.8913 4.10227 100.403 4.10227C100.74 4.10227 101.052 4.14962 101.34 4.24432C101.63 4.33902 101.887 4.47727 102.11 4.65909C102.334 4.83901 102.515 5.05966 102.656 5.32102C102.798 5.58239 102.888 5.88163 102.928 6.21875ZM106.967 5.85511C106.944 5.62595 106.846 5.44792 106.674 5.32102C106.502 5.19413 106.268 5.13068 105.972 5.13068C105.772 5.13068 105.602 5.15909 105.464 5.21591C105.326 5.27083 105.219 5.34754 105.146 5.44602C105.074 5.54451 105.038 5.65625 105.038 5.78125C105.034 5.88542 105.056 5.97633 105.103 6.05398C105.152 6.13163 105.219 6.19886 105.305 6.25568C105.39 6.31061 105.488 6.3589 105.6 6.40057C105.712 6.44034 105.831 6.47443 105.958 6.50284L106.481 6.62784C106.735 6.68466 106.968 6.76042 107.18 6.85511C107.392 6.94981 107.576 7.06629 107.731 7.20455C107.886 7.3428 108.006 7.50568 108.092 7.69318C108.179 7.88068 108.223 8.09564 108.225 8.33807C108.223 8.69413 108.132 9.00284 107.952 9.2642C107.774 9.52367 107.517 9.72538 107.18 9.86932C106.844 10.0114 106.44 10.0824 105.967 10.0824C105.497 10.0824 105.088 10.0104 104.739 9.86648C104.393 9.72254 104.122 9.50947 103.927 9.22727C103.734 8.94318 103.632 8.59186 103.623 8.1733H104.813C104.826 8.36837 104.882 8.53125 104.981 8.66193C105.081 8.79072 105.215 8.88826 105.381 8.95455C105.55 9.01894 105.74 9.05114 105.952 9.05114C106.161 9.05114 106.342 9.02083 106.495 8.96023C106.65 8.89962 106.771 8.81534 106.856 8.70739C106.941 8.59943 106.984 8.47538 106.984 8.33523C106.984 8.20455 106.945 8.0947 106.867 8.00568C106.791 7.91667 106.68 7.84091 106.532 7.77841C106.386 7.71591 106.207 7.65909 105.995 7.60795L105.362 7.44886C104.871 7.32955 104.484 7.14299 104.2 6.8892C103.915 6.63542 103.774 6.29356 103.776 5.86364C103.774 5.51136 103.868 5.2036 104.058 4.94034C104.249 4.67708 104.511 4.47159 104.844 4.32386C105.178 4.17614 105.557 4.10227 105.981 4.10227C106.413 4.10227 106.79 4.17614 107.112 4.32386C107.435 4.47159 107.687 4.67708 107.867 4.94034C108.047 5.2036 108.14 5.50852 108.146 5.85511H106.967ZM112.209 5.85511C112.186 5.62595 112.089 5.44792 111.916 5.32102C111.744 5.19413 111.51 5.13068 111.214 5.13068C111.014 5.13068 110.844 5.15909 110.706 5.21591C110.568 5.27083 110.462 5.34754 110.388 5.44602C110.316 5.54451 110.28 5.65625 110.28 5.78125C110.276 5.88542 110.298 5.97633 110.345 6.05398C110.394 6.13163 110.462 6.19886 110.547 6.25568C110.632 6.31061 110.731 6.3589 110.842 6.40057C110.954 6.44034 111.073 6.47443 111.2 6.50284L111.723 6.62784C111.977 6.68466 112.21 6.76042 112.422 6.85511C112.634 6.94981 112.818 7.06629 112.973 7.20455C113.128 7.3428 113.249 7.50568 113.334 7.69318C113.421 7.88068 113.465 8.09564 113.467 8.33807C113.465 8.69413 113.375 9.00284 113.195 9.2642C113.017 9.52367 112.759 9.72538 112.422 9.86932C112.087 10.0114 111.682 10.0824 111.209 10.0824C110.739 10.0824 110.33 10.0104 109.982 9.86648C109.635 9.72254 109.364 9.50947 109.169 9.22727C108.976 8.94318 108.875 8.59186 108.865 8.1733H110.055C110.069 8.36837 110.125 8.53125 110.223 8.66193C110.323 8.79072 110.457 8.88826 110.624 8.95455C110.792 9.01894 110.982 9.05114 111.195 9.05114C111.403 9.05114 111.584 9.02083 111.737 8.96023C111.893 8.89962 112.013 8.81534 112.098 8.70739C112.183 8.59943 112.226 8.47538 112.226 8.33523C112.226 8.20455 112.187 8.0947 112.109 8.00568C112.034 7.91667 111.922 7.84091 111.774 7.77841C111.628 7.71591 111.449 7.65909 111.237 7.60795L110.604 7.44886C110.113 7.32955 109.726 7.14299 109.442 6.8892C109.158 6.63542 109.017 6.29356 109.018 5.86364C109.017 5.51136 109.11 5.2036 109.3 4.94034C109.491 4.67708 109.753 4.47159 110.087 4.32386C110.42 4.17614 110.799 4.10227 111.223 4.10227C111.655 4.10227 112.032 4.17614 112.354 4.32386C112.678 4.47159 112.929 4.67708 113.109 4.94034C113.289 5.2036 113.382 5.50852 113.388 5.85511H112.209Z" fill="white"/>
<defs>
<filter id="filter0_b_527_84" x="76" y="-50" width="158" height="115" filterUnits="userSpaceOnUse" color-interpolation-filters="sRGB">
<feFlood flood-opacity="0" result="BackgroundImageFix"/>
<feGaussianBlur in="BackgroundImageFix" stdDeviation="25"/>
<feComposite in2="SourceAlpha" operator="in" result="effect1_backgroundBlur_527_84"/>
<feBlend mode="normal" in="SourceGraphic" in2="effect1_backgroundBlur_527_84" result="shape"/>
</filter>
<filter id="filter1_b_527_84" x="13" y="-50" width="158" height="115" filterUnits="userSpaceOnUse" color-interpolation-filters="sRGB">
<feFlood flood-opacity="0" result="BackgroundImageFix"/>
<feGaussianBlur in="BackgroundImageFix" stdDeviation="25"/>
<feComposite in2="SourceAlpha" operator="in" result="effect1_backgroundBlur_527_84"/>
<feBlend mode="normal" in="SourceGraphic" in2="effect1_backgroundBlur_527_84" result="shape"/>
</filter>
<filter id="filter2_b_527_84" x="-50" y="-50" width="158" height="115" filterUnits="userSpaceOnUse" color-interpolation-filters="sRGB">
<feFlood flood-opacity="0" result="BackgroundImageFix"/>
<feGaussianBlur in="BackgroundImageFix" stdDeviation="25"/>
<feComposite in2="SourceAlpha" operator="in" result="effect1_backgroundBlur_527_84"/>
<feBlend mode="normal" in="SourceGraphic" in2="effect1_backgroundBlur_527_84" result="shape"/>
</filter>
</defs>
</svg>
