<svg width="184" height="47" viewBox="0 0 184 47" fill="none" xmlns="http://www.w3.org/2000/svg">
<g filter="url(#filter0_b_509_112)">
<rect x="126" width="58" height="15" rx="7.5" fill="#A2A2A2" fill-opacity="0.2"/>
</g>
<path d="M146.7 4.18182V10H145.638L143.107 6.33807H143.064V10H141.834V4.18182H142.913L145.425 7.84091H145.476V4.18182H146.7ZM149.683 10.0852C149.234 10.0852 148.847 9.99432 148.523 9.8125C148.201 9.62879 147.953 9.36932 147.779 9.03409C147.605 8.69697 147.518 8.2983 147.518 7.83807C147.518 7.3892 147.605 6.99527 147.779 6.65625C147.953 6.31723 148.199 6.05303 148.515 5.86364C148.833 5.67424 149.206 5.57955 149.634 5.57955C149.922 5.57955 150.19 5.62595 150.438 5.71875C150.688 5.80966 150.906 5.94697 151.092 6.13068C151.279 6.31439 151.425 6.54545 151.529 6.82386C151.633 7.10038 151.685 7.42424 151.685 7.79545V8.12784H148.001V7.37784H150.546C150.546 7.2036 150.508 7.04924 150.433 6.91477C150.357 6.7803 150.252 6.67519 150.117 6.59943C149.985 6.52178 149.83 6.48295 149.654 6.48295C149.47 6.48295 149.308 6.52557 149.165 6.6108C149.025 6.69413 148.915 6.80682 148.836 6.94886C148.756 7.08902 148.716 7.24527 148.714 7.41761V8.13068C148.714 8.34659 148.754 8.53314 148.833 8.69034C148.915 8.84754 149.029 8.96875 149.177 9.05398C149.325 9.1392 149.5 9.18182 149.702 9.18182C149.837 9.18182 149.96 9.16288 150.072 9.125C150.183 9.08712 150.279 9.0303 150.359 8.95455C150.438 8.87879 150.499 8.78598 150.54 8.67614L151.66 8.75C151.603 9.01894 151.487 9.25379 151.31 9.45455C151.136 9.65341 150.911 9.80871 150.634 9.92045C150.36 10.0303 150.042 10.0852 149.683 10.0852ZM153.408 5.63636L154.21 7.16193L155.031 5.63636H156.272L155.008 7.81818L156.306 10H155.07L154.21 8.49148L153.363 10H152.113L153.408 7.81818L152.158 5.63636H153.408ZM159.312 5.63636V6.54545H156.684V5.63636H159.312ZM157.281 4.59091H158.491V8.65909C158.491 8.77083 158.508 8.85795 158.542 8.92045C158.576 8.98106 158.623 9.02367 158.684 9.0483C158.746 9.07292 158.818 9.08523 158.9 9.08523C158.957 9.08523 159.013 9.08049 159.07 9.07102C159.127 9.05966 159.171 9.05114 159.201 9.04545L159.391 9.94602C159.331 9.96496 159.246 9.98674 159.136 10.0114C159.026 10.0379 158.892 10.054 158.735 10.0597C158.443 10.071 158.188 10.0322 157.968 9.94318C157.75 9.85417 157.581 9.71591 157.46 9.52841C157.338 9.34091 157.279 9.10417 157.281 8.81818V4.59091ZM160.808 10.0739C160.62 10.0739 160.459 10.0076 160.325 9.875C160.192 9.74053 160.126 9.57955 160.126 9.39205C160.126 9.20644 160.192 9.04735 160.325 8.91477C160.459 8.7822 160.62 8.71591 160.808 8.71591C160.989 8.71591 161.148 8.7822 161.285 8.91477C161.421 9.04735 161.489 9.20644 161.489 9.39205C161.489 9.51705 161.457 9.63163 161.393 9.7358C161.33 9.83807 161.248 9.92045 161.146 9.98295C161.043 10.0436 160.931 10.0739 160.808 10.0739ZM162.483 5.63636H163.693V10.2159C163.693 10.553 163.627 10.8258 163.494 11.0341C163.362 11.2424 163.171 11.3949 162.923 11.4915C162.677 11.5881 162.383 11.6364 162.04 11.6364C161.998 11.6364 161.958 11.6354 161.92 11.6335C161.881 11.6335 161.839 11.6326 161.795 11.6307V10.6847C161.828 10.6866 161.856 10.6875 161.881 10.6875C161.903 10.6894 161.928 10.6903 161.955 10.6903C162.15 10.6903 162.286 10.6487 162.364 10.5653C162.443 10.4839 162.483 10.3608 162.483 10.196V5.63636ZM163.085 5.07386C162.907 5.07386 162.754 5.0142 162.625 4.89489C162.496 4.77367 162.432 4.62879 162.432 4.46023C162.432 4.29356 162.496 4.15057 162.625 4.03125C162.754 3.91004 162.907 3.84943 163.085 3.84943C163.267 3.84943 163.421 3.91004 163.548 4.03125C163.677 4.15057 163.741 4.29356 163.741 4.46023C163.741 4.62879 163.677 4.77367 163.548 4.89489C163.421 5.0142 163.267 5.07386 163.085 5.07386ZM168.293 6.88068L167.185 6.94886C167.166 6.85417 167.126 6.76894 167.063 6.69318C167.001 6.61553 166.918 6.55398 166.816 6.50852C166.716 6.46117 166.595 6.4375 166.455 6.4375C166.268 6.4375 166.11 6.47727 165.981 6.55682C165.852 6.63447 165.788 6.73864 165.788 6.86932C165.788 6.97348 165.829 7.06155 165.913 7.13352C165.996 7.20549 166.139 7.26326 166.342 7.30682L167.131 7.46591C167.556 7.55303 167.872 7.69318 168.08 7.88636C168.289 8.07955 168.393 8.33333 168.393 8.64773C168.393 8.93371 168.308 9.18466 168.14 9.40057C167.973 9.61648 167.744 9.78504 167.452 9.90625C167.163 10.0256 166.828 10.0852 166.45 10.0852C165.872 10.0852 165.412 9.96496 165.069 9.72443C164.728 9.48201 164.528 9.15246 164.469 8.7358L165.66 8.6733C165.696 8.84943 165.783 8.9839 165.921 9.0767C166.059 9.16761 166.237 9.21307 166.452 9.21307C166.665 9.21307 166.835 9.17235 166.964 9.09091C167.094 9.00758 167.161 8.90057 167.163 8.76989C167.161 8.66004 167.114 8.57008 167.023 8.5C166.933 8.42803 166.792 8.37311 166.603 8.33523L165.847 8.18466C165.421 8.09943 165.104 7.9517 164.896 7.74148C164.689 7.53125 164.586 7.26326 164.586 6.9375C164.586 6.6572 164.662 6.41572 164.813 6.21307C164.967 6.01042 165.182 5.85417 165.458 5.74432C165.737 5.63447 166.062 5.57955 166.435 5.57955C166.987 5.57955 167.42 5.69602 167.737 5.92898C168.055 6.16193 168.24 6.47917 168.293 6.88068Z" fill="white"/>
<g filter="url(#filter1_b_509_112)">
<rect x="63" width="58" height="15" rx="7.5" fill="#A2A2A2" fill-opacity="0.2"/>
</g>
<g filter="url(#filter2_b_509_112)">
<rect width="58" height="15" rx="7.5" fill="#A2A2A2" fill-opacity="0.2"/>
</g>
<path d="M8.28409 5.19602V4.18182H13.0625V5.19602H11.2812V10H10.0653V5.19602H8.28409ZM14.0739 11.6364C13.9205 11.6364 13.7765 11.6241 13.642 11.5994C13.5095 11.5767 13.3996 11.5473 13.3125 11.5114L13.5852 10.608C13.7273 10.6515 13.8551 10.6752 13.9688 10.679C14.0843 10.6828 14.1837 10.6563 14.267 10.5994C14.3523 10.5426 14.4214 10.446 14.4744 10.3097L14.5455 10.125L12.9801 5.63636H14.2528L15.1562 8.84091H15.2017L16.1136 5.63636H17.3949L15.6989 10.4716C15.6174 10.7064 15.5066 10.911 15.3665 11.0852C15.2282 11.2614 15.053 11.3968 14.8409 11.4915C14.6288 11.5881 14.3731 11.6364 14.0739 11.6364ZM18.0142 11.6364V5.63636H19.2074V6.36932H19.2614C19.3144 6.25189 19.3911 6.13258 19.4915 6.01136C19.5938 5.88826 19.7263 5.78598 19.8892 5.70455C20.054 5.62121 20.2585 5.57955 20.5028 5.57955C20.821 5.57955 21.1146 5.66288 21.3835 5.82955C21.6525 5.99432 21.8674 6.24337 22.0284 6.5767C22.1894 6.90814 22.2699 7.32386 22.2699 7.82386C22.2699 8.31061 22.1913 8.72159 22.0341 9.05682C21.8788 9.39015 21.6667 9.64299 21.3977 9.81534C21.1307 9.9858 20.8314 10.071 20.5 10.071C20.2652 10.071 20.0653 10.0322 19.9006 9.95455C19.7377 9.87689 19.6042 9.77936 19.5 9.66193C19.3958 9.54261 19.3163 9.42235 19.2614 9.30114H19.2244V11.6364H18.0142ZM19.1989 7.81818C19.1989 8.07765 19.2348 8.30398 19.3068 8.49716C19.3788 8.69034 19.483 8.84091 19.6193 8.94886C19.7557 9.05492 19.9214 9.10795 20.1165 9.10795C20.3134 9.10795 20.4801 9.05398 20.6165 8.94602C20.7528 8.83617 20.8561 8.68466 20.9261 8.49148C20.9981 8.2964 21.0341 8.07197 21.0341 7.81818C21.0341 7.56629 20.9991 7.3447 20.929 7.15341C20.8589 6.96212 20.7557 6.8125 20.6193 6.70455C20.483 6.59659 20.3153 6.54261 20.1165 6.54261C19.9195 6.54261 19.7528 6.5947 19.6165 6.69886C19.482 6.80303 19.3788 6.95076 19.3068 7.14205C19.2348 7.33333 19.1989 7.55871 19.1989 7.81818ZM25.0653 10.0852C24.6165 10.0852 24.2301 9.99432 23.9062 9.8125C23.5843 9.62879 23.3362 9.36932 23.1619 9.03409C22.9877 8.69697 22.9006 8.2983 22.9006 7.83807C22.9006 7.3892 22.9877 6.99527 23.1619 6.65625C23.3362 6.31723 23.5814 6.05303 23.8977 5.86364C24.2159 5.67424 24.589 5.57955 25.017 5.57955C25.3049 5.57955 25.5729 5.62595 25.821 5.71875C26.071 5.80966 26.2888 5.94697 26.4744 6.13068C26.6619 6.31439 26.8078 6.54545 26.9119 6.82386C27.0161 7.10038 27.0682 7.42424 27.0682 7.79545V8.12784H23.3835V7.37784H25.929C25.929 7.2036 25.8911 7.04924 25.8153 6.91477C25.7396 6.7803 25.6345 6.67519 25.5 6.59943C25.3674 6.52178 25.2131 6.48295 25.0369 6.48295C24.8532 6.48295 24.6903 6.52557 24.5483 6.6108C24.4081 6.69413 24.2983 6.80682 24.2188 6.94886C24.1392 7.08902 24.0985 7.24527 24.0966 7.41761V8.13068C24.0966 8.34659 24.1364 8.53314 24.2159 8.69034C24.2973 8.84754 24.4119 8.96875 24.5597 9.05398C24.7074 9.1392 24.8826 9.18182 25.0852 9.18182C25.2197 9.18182 25.3428 9.16288 25.4545 9.125C25.5663 9.08712 25.6619 9.0303 25.7415 8.95455C25.821 8.87879 25.8816 8.78598 25.9233 8.67614L27.0426 8.75C26.9858 9.01894 26.8693 9.25379 26.6932 9.45455C26.5189 9.65341 26.2936 9.80871 26.017 9.92045C25.7424 10.0303 25.4252 10.0852 25.0653 10.0852ZM31.0369 5.85511C31.0142 5.62595 30.9167 5.44792 30.7443 5.32102C30.572 5.19413 30.3381 5.13068 30.0426 5.13068C29.8419 5.13068 29.6723 5.15909 29.5341 5.21591C29.3958 5.27083 29.2898 5.34754 29.2159 5.44602C29.1439 5.54451 29.108 5.65625 29.108 5.78125C29.1042 5.88542 29.1259 5.97633 29.1733 6.05398C29.2225 6.13163 29.2898 6.19886 29.375 6.25568C29.4602 6.31061 29.5587 6.3589 29.6705 6.40057C29.7822 6.44034 29.9015 6.47443 30.0284 6.50284L30.5511 6.62784C30.8049 6.68466 31.0379 6.76042 31.25 6.85511C31.4621 6.94981 31.6458 7.06629 31.8011 7.20455C31.9564 7.3428 32.0767 7.50568 32.1619 7.69318C32.2491 7.88068 32.2936 8.09564 32.2955 8.33807C32.2936 8.69413 32.2027 9.00284 32.0227 9.2642C31.8447 9.52367 31.5871 9.72538 31.25 9.86932C30.9148 10.0114 30.5104 10.0824 30.0369 10.0824C29.5672 10.0824 29.1581 10.0104 28.8097 9.86648C28.4631 9.72254 28.1922 9.50947 27.9972 9.22727C27.804 8.94318 27.7027 8.59186 27.6932 8.1733H28.8835C28.8968 8.36837 28.9527 8.53125 29.0511 8.66193C29.1515 8.79072 29.285 8.88826 29.4517 8.95455C29.6203 9.01894 29.8106 9.05114 30.0227 9.05114C30.2311 9.05114 30.4119 9.02083 30.5653 8.96023C30.7206 8.89962 30.8409 8.81534 30.9261 8.70739C31.0114 8.59943 31.054 8.47538 31.054 8.33523C31.054 8.20455 31.0152 8.0947 30.9375 8.00568C30.8617 7.91667 30.75 7.84091 30.6023 7.77841C30.4564 7.71591 30.2775 7.65909 30.0653 7.60795L29.4318 7.44886C28.9413 7.32955 28.554 7.14299 28.2699 6.8892C27.9858 6.63542 27.8447 6.29356 27.8466 5.86364C27.8447 5.51136 27.9384 5.2036 28.1278 4.94034C28.3191 4.67708 28.5814 4.47159 28.9148 4.32386C29.2481 4.17614 29.6269 4.10227 30.0511 4.10227C30.483 4.10227 30.8598 4.17614 31.1818 4.32386C31.5057 4.47159 31.7576 4.67708 31.9375 4.94034C32.1174 5.2036 32.2102 5.50852 32.2159 5.85511H31.0369ZM35.0717 10.0852C34.6248 10.0852 34.2403 9.99053 33.9183 9.80114C33.5982 9.60985 33.352 9.3447 33.1797 9.00568C33.0092 8.66667 32.924 8.27652 32.924 7.83523C32.924 7.38826 33.0102 6.99621 33.1825 6.65909C33.3568 6.32008 33.6039 6.05587 33.924 5.86648C34.2441 5.67519 34.6248 5.57955 35.0661 5.57955C35.4467 5.57955 35.7801 5.64867 36.0661 5.78693C36.352 5.92519 36.5784 6.11932 36.745 6.36932C36.9117 6.61932 37.0036 6.91288 37.0206 7.25H35.8786C35.8464 7.0322 35.7611 6.85701 35.6229 6.72443C35.4865 6.58996 35.3075 6.52273 35.0859 6.52273C34.8984 6.52273 34.7346 6.57386 34.5945 6.67614C34.4562 6.77652 34.3482 6.9233 34.2706 7.11648C34.1929 7.30966 34.1541 7.54356 34.1541 7.81818C34.1541 8.09659 34.192 8.33333 34.2678 8.52841C34.3454 8.72348 34.4543 8.87216 34.5945 8.97443C34.7346 9.0767 34.8984 9.12784 35.0859 9.12784C35.2242 9.12784 35.3482 9.09943 35.4581 9.04261C35.5698 8.9858 35.6617 8.90341 35.7337 8.79545C35.8075 8.68561 35.8558 8.55398 35.8786 8.40057H37.0206C37.0017 8.7339 36.9107 9.02746 36.7479 9.28125C36.5869 9.53314 36.3643 9.73011 36.0803 9.87216C35.7962 10.0142 35.46 10.0852 35.0717 10.0852ZM37.7955 10V5.63636H38.9688V6.39773H39.0142C39.0938 6.12689 39.2273 5.92235 39.4148 5.78409C39.6023 5.64394 39.8182 5.57386 40.0625 5.57386C40.1231 5.57386 40.1884 5.57765 40.2585 5.58523C40.3286 5.5928 40.3902 5.60322 40.4432 5.61648V6.69034C40.3864 6.6733 40.3078 6.65814 40.2074 6.64489C40.107 6.63163 40.0152 6.625 39.9318 6.625C39.7538 6.625 39.5947 6.66383 39.4545 6.74148C39.3163 6.81723 39.2064 6.9233 39.125 7.05966C39.0455 7.19602 39.0057 7.35322 39.0057 7.53125V10H37.7955ZM41.0689 10V5.63636H42.2791V10H41.0689ZM41.6768 5.07386C41.4969 5.07386 41.3426 5.0142 41.2138 4.89489C41.0869 4.77367 41.0234 4.62879 41.0234 4.46023C41.0234 4.29356 41.0869 4.15057 41.2138 4.03125C41.3426 3.91004 41.4969 3.84943 41.6768 3.84943C41.8568 3.84943 42.0102 3.91004 42.1371 4.03125C42.2659 4.15057 42.3303 4.29356 42.3303 4.46023C42.3303 4.62879 42.2659 4.77367 42.1371 4.89489C42.0102 5.0142 41.8568 5.07386 41.6768 5.07386ZM43.2486 11.6364V5.63636H44.4418V6.36932H44.4957C44.5488 6.25189 44.6255 6.13258 44.7259 6.01136C44.8281 5.88826 44.9607 5.78598 45.1236 5.70455C45.2884 5.62121 45.4929 5.57955 45.7372 5.57955C46.0554 5.57955 46.349 5.66288 46.6179 5.82955C46.8868 5.99432 47.1018 6.24337 47.2628 6.5767C47.4238 6.90814 47.5043 7.32386 47.5043 7.82386C47.5043 8.31061 47.4257 8.72159 47.2685 9.05682C47.1132 9.39015 46.901 9.64299 46.6321 9.81534C46.3651 9.9858 46.0658 10.071 45.7344 10.071C45.4995 10.071 45.2997 10.0322 45.1349 9.95455C44.9721 9.87689 44.8385 9.77936 44.7344 9.66193C44.6302 9.54261 44.5507 9.42235 44.4957 9.30114H44.4588V11.6364H43.2486ZM44.4332 7.81818C44.4332 8.07765 44.4692 8.30398 44.5412 8.49716C44.6132 8.69034 44.7173 8.84091 44.8537 8.94886C44.9901 9.05492 45.1558 9.10795 45.3509 9.10795C45.5478 9.10795 45.7145 9.05398 45.8509 8.94602C45.9872 8.83617 46.0904 8.68466 46.1605 8.49148C46.2325 8.2964 46.2685 8.07197 46.2685 7.81818C46.2685 7.56629 46.2334 7.3447 46.1634 7.15341C46.0933 6.96212 45.9901 6.8125 45.8537 6.70455C45.7173 6.59659 45.5497 6.54261 45.3509 6.54261C45.1539 6.54261 44.9872 6.5947 44.8509 6.69886C44.7164 6.80303 44.6132 6.95076 44.5412 7.14205C44.4692 7.33333 44.4332 7.55871 44.4332 7.81818ZM50.6321 5.63636V6.54545H48.0043V5.63636H50.6321ZM48.6009 4.59091H49.8111V8.65909C49.8111 8.77083 49.8281 8.85795 49.8622 8.92045C49.8963 8.98106 49.9437 9.02367 50.0043 9.0483C50.0668 9.07292 50.1387 9.08523 50.2202 9.08523C50.277 9.08523 50.3338 9.08049 50.3906 9.07102C50.4474 9.05966 50.491 9.05114 50.5213 9.04545L50.7116 9.94602C50.651 9.96496 50.5658 9.98674 50.456 10.0114C50.3461 10.0379 50.2126 10.054 50.0554 10.0597C49.7637 10.071 49.508 10.0322 49.2884 9.94318C49.0705 9.85417 48.901 9.71591 48.7798 9.52841C48.6586 9.34091 48.599 9.10417 48.6009 8.81818V4.59091Z" fill="white"/>
<path d="M25.5807 45.0994C25.0788 45.0994 24.6314 45.0071 24.2384 44.8224C23.8477 44.6378 23.5376 44.3833 23.308 44.0589C23.0783 43.7346 22.9588 43.3629 22.9493 42.9439H24.4408C24.4574 43.2256 24.5757 43.4541 24.7959 43.6293C25.0161 43.8045 25.2777 43.892 25.5807 43.892C25.8222 43.892 26.0352 43.8388 26.2199 43.7322C26.4069 43.6233 26.5525 43.473 26.6567 43.2812C26.7632 43.0871 26.8165 42.8646 26.8165 42.6136C26.8165 42.358 26.762 42.133 26.6531 41.9389C26.5466 41.7448 26.3986 41.5933 26.2093 41.4844C26.0199 41.3755 25.8032 41.3198 25.5594 41.3175C25.3463 41.3175 25.1392 41.3613 24.9379 41.4489C24.7391 41.5365 24.584 41.656 24.4727 41.8075L23.1056 41.5625L23.45 37.7273H27.896V38.9844H24.7178L24.5296 40.8061H24.5722C24.7 40.6262 24.893 40.477 25.151 40.3587C25.4091 40.2403 25.6979 40.1811 26.0175 40.1811C26.4555 40.1811 26.8461 40.2841 27.1894 40.4901C27.5326 40.696 27.8037 40.9789 28.0026 41.3388C28.2014 41.6963 28.2997 42.1082 28.2973 42.5746C28.2997 43.0646 28.1861 43.5002 27.9564 43.8814C27.7291 44.2602 27.4107 44.5585 27.0012 44.7763C26.594 44.9917 26.1205 45.0994 25.5807 45.0994ZM32.2213 45.1598C31.6105 45.1574 31.085 45.0071 30.6446 44.7088C30.2066 44.4105 29.8693 43.9785 29.6325 43.4126C29.3982 42.8468 29.2822 42.1662 29.2845 41.3707C29.2845 40.5777 29.4017 39.9018 29.6361 39.343C29.8728 38.7843 30.2102 38.3594 30.6482 38.0682C31.0885 37.7746 31.6129 37.6278 32.2213 37.6278C32.8298 37.6278 33.353 37.7746 33.7909 38.0682C34.2313 38.3617 34.5698 38.7879 34.8066 39.3466C35.0433 39.9029 35.1605 40.5777 35.1581 41.3707C35.1581 42.1686 35.0397 42.8504 34.803 43.4162C34.5686 43.982 34.2325 44.4141 33.7945 44.7124C33.3565 45.0107 32.8321 45.1598 32.2213 45.1598ZM32.2213 43.8849C32.638 43.8849 32.9706 43.6754 33.2192 43.2564C33.4678 42.8374 33.5909 42.2088 33.5885 41.3707C33.5885 40.8191 33.5317 40.3598 33.4181 39.9929C33.3068 39.6259 33.1482 39.3501 32.9422 39.1655C32.7386 38.9808 32.4983 38.8885 32.2213 38.8885C31.807 38.8885 31.4756 39.0956 31.227 39.5099C30.9784 39.9242 30.853 40.5445 30.8506 41.3707C30.8506 41.9295 30.9062 42.3958 31.0175 42.7699C31.1311 43.1416 31.2909 43.4209 31.4969 43.608C31.7029 43.7926 31.9443 43.8849 32.2213 43.8849Z" fill="#FFCC4D"/>
<path d="M90.0846 37.7273V45H88.547V39.1868H88.5044L86.8389 40.2308V38.8672L88.6393 37.7273H90.0846ZM94.4694 45.0994C93.9675 45.0994 93.52 45.0071 93.127 44.8224C92.7364 44.6378 92.4263 44.3833 92.1966 44.0589C91.967 43.7346 91.8474 43.3629 91.838 42.9439H93.3295C93.346 43.2256 93.4644 43.4541 93.6846 43.6293C93.9047 43.8045 94.1663 43.892 94.4694 43.892C94.7108 43.892 94.9239 43.8388 95.1086 43.7322C95.2956 43.6233 95.4412 43.473 95.5454 43.2812C95.6519 43.0871 95.7052 42.8646 95.7052 42.6136C95.7052 42.358 95.6507 42.133 95.5418 41.9389C95.4353 41.7448 95.2873 41.5933 95.0979 41.4844C94.9085 41.3755 94.6919 41.3198 94.4481 41.3175C94.235 41.3175 94.0278 41.3613 93.8266 41.4489C93.6278 41.5365 93.4727 41.656 93.3614 41.8075L91.9942 41.5625L92.3387 37.7273H96.7847V38.9844H93.6064L93.4182 40.8061H93.4608C93.5887 40.6262 93.7816 40.477 94.0397 40.3587C94.2977 40.2403 94.5866 40.1811 94.9062 40.1811C95.3441 40.1811 95.7348 40.2841 96.078 40.4901C96.4213 40.696 96.6924 40.9789 96.8912 41.3388C97.0901 41.6963 97.1884 42.1082 97.186 42.5746C97.1884 43.0646 97.0747 43.5002 96.8451 43.8814C96.6178 44.2602 96.2994 44.5585 95.8898 44.7763C95.4826 44.9917 95.0091 45.0994 94.4694 45.0994Z" fill="#51CF8B"/>
<path d="M151.759 45.0994C151.229 45.0994 150.757 45.0083 150.342 44.826C149.93 44.6413 149.605 44.388 149.366 44.0661C149.129 43.7417 149.007 43.3677 149 42.9439H150.548C150.558 43.1214 150.616 43.2777 150.722 43.4126C150.831 43.5452 150.976 43.6482 151.155 43.7216C151.335 43.795 151.538 43.8317 151.763 43.8317C151.997 43.8317 152.204 43.7902 152.384 43.7074C152.564 43.6245 152.705 43.5097 152.807 43.3629C152.909 43.2161 152.959 43.0469 152.959 42.8551C152.959 42.661 152.905 42.4893 152.796 42.3402C152.69 42.1887 152.536 42.0703 152.334 41.9851C152.136 41.8999 151.899 41.8572 151.624 41.8572H150.946V40.728H151.624C151.856 40.728 152.061 40.6877 152.239 40.6072C152.418 40.5268 152.558 40.4155 152.658 40.2734C152.757 40.129 152.807 39.9609 152.807 39.7692C152.807 39.5869 152.763 39.4271 152.675 39.2898C152.59 39.1501 152.469 39.0412 152.313 38.9631C152.159 38.8849 151.979 38.8459 151.773 38.8459C151.565 38.8459 151.374 38.8838 151.202 38.9595C151.029 39.0329 150.89 39.1383 150.786 39.2756C150.682 39.4129 150.626 39.5739 150.619 39.7585H149.146C149.153 39.3395 149.272 38.9702 149.504 38.6506C149.736 38.331 150.049 38.0812 150.442 37.9013C150.837 37.719 151.283 37.6278 151.78 37.6278C152.282 37.6278 152.722 37.719 153.098 37.9013C153.474 38.0836 153.767 38.3298 153.975 38.6399C154.186 38.9477 154.29 39.2933 154.288 39.6768C154.29 40.084 154.163 40.4238 153.908 40.696C153.654 40.9683 153.324 41.1411 152.917 41.2145V41.2713C153.452 41.34 153.859 41.5258 154.138 41.8288C154.42 42.1295 154.56 42.5059 154.557 42.9581C154.56 43.3724 154.44 43.7405 154.199 44.0625C153.96 44.3845 153.629 44.6378 153.208 44.8224C152.787 45.0071 152.304 45.0994 151.759 45.0994ZM158.319 45.0994C157.817 45.0994 157.37 45.0071 156.977 44.8224C156.586 44.6378 156.276 44.3833 156.046 44.0589C155.817 43.7346 155.697 43.3629 155.688 42.9439H157.179C157.196 43.2256 157.314 43.4541 157.534 43.6293C157.754 43.8045 158.016 43.892 158.319 43.892C158.56 43.892 158.774 43.8388 158.958 43.7322C159.145 43.6233 159.291 43.473 159.395 43.2812C159.502 43.0871 159.555 42.8646 159.555 42.6136C159.555 42.358 159.5 42.133 159.391 41.9389C159.285 41.7448 159.137 41.5933 158.948 41.4844C158.758 41.3755 158.542 41.3198 158.298 41.3175C158.085 41.3175 157.877 41.3613 157.676 41.4489C157.477 41.5365 157.322 41.656 157.211 41.8075L155.844 41.5625L156.188 37.7273H160.634V38.9844H157.456L157.268 40.8061H157.31C157.438 40.6262 157.631 40.477 157.889 40.3587C158.147 40.2403 158.436 40.1811 158.756 40.1811C159.194 40.1811 159.584 40.2841 159.928 40.4901C160.271 40.696 160.542 40.9789 160.741 41.3388C160.94 41.6963 161.038 42.1082 161.036 42.5746C161.038 43.0646 160.924 43.5002 160.695 43.8814C160.467 44.2602 160.149 44.5585 159.739 44.7763C159.332 44.9917 158.859 45.0994 158.319 45.0994Z" fill="#DC54DF"/>
<path d="M71.5057 10V4.18182H72.7358V6.58239H75.233V4.18182H76.4602V10H75.233V7.59659H72.7358V10H71.5057ZM77.2528 5.19602V4.18182H82.0312V5.19602H80.25V10H79.0341V5.19602H77.2528ZM82.8182 4.18182H84.3352L85.9375 8.09091H86.0057L87.608 4.18182H89.125V10H87.9318V6.21307H87.8835L86.3778 9.97159H85.5653L84.0597 6.19886H84.0114V10H82.8182V4.18182ZM90.1385 10V4.18182H91.3686V8.9858H93.8629V10H90.1385ZM97.1889 3.90909L95.3139 10.875H94.2713L96.1463 3.90909H97.1889ZM102.928 6.21875H101.684C101.661 6.05777 101.615 5.91477 101.545 5.78977C101.475 5.66288 101.385 5.55492 101.275 5.46591C101.165 5.37689 101.038 5.30871 100.894 5.26136C100.752 5.21402 100.598 5.19034 100.431 5.19034C100.13 5.19034 99.8677 5.26515 99.6442 5.41477C99.4207 5.5625 99.2474 5.77841 99.1243 6.0625C99.0012 6.3447 98.9396 6.6875 98.9396 7.09091C98.9396 7.50568 99.0012 7.85417 99.1243 8.13636C99.2493 8.41856 99.4235 8.63163 99.647 8.77557C99.8705 8.91951 100.129 8.99148 100.423 8.99148C100.587 8.99148 100.74 8.9697 100.88 8.92614C101.022 8.88258 101.148 8.81913 101.258 8.7358C101.368 8.65057 101.459 8.54735 101.531 8.42614C101.604 8.30492 101.656 8.16667 101.684 8.01136L102.928 8.01705C102.896 8.28409 102.816 8.54167 102.687 8.78977C102.56 9.03598 102.388 9.25663 102.173 9.4517C101.959 9.64489 101.703 9.7983 101.406 9.91193C101.11 10.0237 100.776 10.0795 100.403 10.0795C99.8838 10.0795 99.4197 9.96212 99.0107 9.72727C98.6035 9.49242 98.2815 9.15246 98.0447 8.70739C97.8099 8.26231 97.6925 7.72348 97.6925 7.09091C97.6925 6.45644 97.8118 5.91667 98.0504 5.47159C98.2891 5.02652 98.6129 4.6875 99.022 4.45455C99.4311 4.2197 99.8913 4.10227 100.403 4.10227C100.74 4.10227 101.052 4.14962 101.34 4.24432C101.63 4.33902 101.887 4.47727 102.11 4.65909C102.334 4.83901 102.515 5.05966 102.656 5.32102C102.798 5.58239 102.888 5.88163 102.928 6.21875ZM106.967 5.85511C106.944 5.62595 106.846 5.44792 106.674 5.32102C106.502 5.19413 106.268 5.13068 105.972 5.13068C105.772 5.13068 105.602 5.15909 105.464 5.21591C105.326 5.27083 105.219 5.34754 105.146 5.44602C105.074 5.54451 105.038 5.65625 105.038 5.78125C105.034 5.88542 105.056 5.97633 105.103 6.05398C105.152 6.13163 105.219 6.19886 105.305 6.25568C105.39 6.31061 105.488 6.3589 105.6 6.40057C105.712 6.44034 105.831 6.47443 105.958 6.50284L106.481 6.62784C106.735 6.68466 106.968 6.76042 107.18 6.85511C107.392 6.94981 107.576 7.06629 107.731 7.20455C107.886 7.3428 108.006 7.50568 108.092 7.69318C108.179 7.88068 108.223 8.09564 108.225 8.33807C108.223 8.69413 108.132 9.00284 107.952 9.2642C107.774 9.52367 107.517 9.72538 107.18 9.86932C106.844 10.0114 106.44 10.0824 105.967 10.0824C105.497 10.0824 105.088 10.0104 104.739 9.86648C104.393 9.72254 104.122 9.50947 103.927 9.22727C103.734 8.94318 103.632 8.59186 103.623 8.1733H104.813C104.826 8.36837 104.882 8.53125 104.981 8.66193C105.081 8.79072 105.215 8.88826 105.381 8.95455C105.55 9.01894 105.74 9.05114 105.952 9.05114C106.161 9.05114 106.342 9.02083 106.495 8.96023C106.65 8.89962 106.771 8.81534 106.856 8.70739C106.941 8.59943 106.984 8.47538 106.984 8.33523C106.984 8.20455 106.945 8.0947 106.867 8.00568C106.791 7.91667 106.68 7.84091 106.532 7.77841C106.386 7.71591 106.207 7.65909 105.995 7.60795L105.362 7.44886C104.871 7.32955 104.484 7.14299 104.2 6.8892C103.915 6.63542 103.774 6.29356 103.776 5.86364C103.774 5.51136 103.868 5.2036 104.058 4.94034C104.249 4.67708 104.511 4.47159 104.844 4.32386C105.178 4.17614 105.557 4.10227 105.981 4.10227C106.413 4.10227 106.79 4.17614 107.112 4.32386C107.435 4.47159 107.687 4.67708 107.867 4.94034C108.047 5.2036 108.14 5.50852 108.146 5.85511H106.967ZM112.209 5.85511C112.186 5.62595 112.089 5.44792 111.916 5.32102C111.744 5.19413 111.51 5.13068 111.214 5.13068C111.014 5.13068 110.844 5.15909 110.706 5.21591C110.568 5.27083 110.462 5.34754 110.388 5.44602C110.316 5.54451 110.28 5.65625 110.28 5.78125C110.276 5.88542 110.298 5.97633 110.345 6.05398C110.394 6.13163 110.462 6.19886 110.547 6.25568C110.632 6.31061 110.731 6.3589 110.842 6.40057C110.954 6.44034 111.073 6.47443 111.2 6.50284L111.723 6.62784C111.977 6.68466 112.21 6.76042 112.422 6.85511C112.634 6.94981 112.818 7.06629 112.973 7.20455C113.128 7.3428 113.249 7.50568 113.334 7.69318C113.421 7.88068 113.465 8.09564 113.467 8.33807C113.465 8.69413 113.375 9.00284 113.195 9.2642C113.017 9.52367 112.759 9.72538 112.422 9.86932C112.087 10.0114 111.682 10.0824 111.209 10.0824C110.739 10.0824 110.33 10.0104 109.982 9.86648C109.635 9.72254 109.364 9.50947 109.169 9.22727C108.976 8.94318 108.875 8.59186 108.865 8.1733H110.055C110.069 8.36837 110.125 8.53125 110.223 8.66193C110.323 8.79072 110.457 8.88826 110.624 8.95455C110.792 9.01894 110.982 9.05114 111.195 9.05114C111.403 9.05114 111.584 9.02083 111.737 8.96023C111.893 8.89962 112.013 8.81534 112.098 8.70739C112.183 8.59943 112.226 8.47538 112.226 8.33523C112.226 8.20455 112.187 8.0947 112.109 8.00568C112.034 7.91667 111.922 7.84091 111.774 7.77841C111.628 7.71591 111.449 7.65909 111.237 7.60795L110.604 7.44886C110.113 7.32955 109.726 7.14299 109.442 6.8892C109.158 6.63542 109.017 6.29356 109.018 5.86364C109.017 5.51136 109.11 5.2036 109.3 4.94034C109.491 4.67708 109.753 4.47159 110.087 4.32386C110.42 4.17614 110.799 4.10227 111.223 4.10227C111.655 4.10227 112.032 4.17614 112.354 4.32386C112.678 4.47159 112.929 4.67708 113.109 4.94034C113.289 5.2036 113.382 5.50852 113.388 5.85511H112.209Z" fill="white"/>
<defs>
<filter id="filter0_b_509_112" x="76" y="-50" width="158" height="115" filterUnits="userSpaceOnUse" color-interpolation-filters="sRGB">
<feFlood flood-opacity="0" result="BackgroundImageFix"/>
<feGaussianBlur in="BackgroundImageFix" stdDeviation="25"/>
<feComposite in2="SourceAlpha" operator="in" result="effect1_backgroundBlur_509_112"/>
<feBlend mode="normal" in="SourceGraphic" in2="effect1_backgroundBlur_509_112" result="shape"/>
</filter>
<filter id="filter1_b_509_112" x="13" y="-50" width="158" height="115" filterUnits="userSpaceOnUse" color-interpolation-filters="sRGB">
<feFlood flood-opacity="0" result="BackgroundImageFix"/>
<feGaussianBlur in="BackgroundImageFix" stdDeviation="25"/>
<feComposite in2="SourceAlpha" operator="in" result="effect1_backgroundBlur_509_112"/>
<feBlend mode="normal" in="SourceGraphic" in2="effect1_backgroundBlur_509_112" result="shape"/>
</filter>
<filter id="filter2_b_509_112" x="-50" y="-50" width="158" height="115" filterUnits="userSpaceOnUse" color-interpolation-filters="sRGB">
<feFlood flood-opacity="0" result="BackgroundImageFix"/>
<feGaussianBlur in="BackgroundImageFix" stdDeviation="25"/>
<feComposite in2="SourceAlpha" operator="in" result="effect1_backgroundBlur_509_112"/>
<feBlend mode="normal" in="SourceGraphic" in2="effect1_backgroundBlur_509_112" result="shape"/>
</filter>
</defs>
</svg>
