<svg width="184" height="47" viewBox="0 0 184 47" fill="none" xmlns="http://www.w3.org/2000/svg">
<g filter="url(#filter0_b_534_133)">
<rect x="126" width="58" height="15" rx="7.5" fill="#A2A2A2" fill-opacity="0.2"/>
</g>
<path d="M151.694 7.21875H150.45C150.427 7.05777 150.38 6.91477 150.31 6.78977C150.24 6.66288 150.15 6.55492 150.04 6.46591C149.931 6.37689 149.804 6.30871 149.66 6.26136C149.518 6.21402 149.363 6.19034 149.197 6.19034C148.896 6.19034 148.633 6.26515 148.41 6.41477C148.186 6.5625 148.013 6.77841 147.89 7.0625C147.767 7.3447 147.705 7.6875 147.705 8.09091C147.705 8.50568 147.767 8.85417 147.89 9.13636C148.015 9.41856 148.189 9.63163 148.413 9.77557C148.636 9.91951 148.895 9.99148 149.188 9.99148C149.353 9.99148 149.505 9.9697 149.646 9.92614C149.788 9.88258 149.914 9.81913 150.023 9.7358C150.133 9.65057 150.224 9.54735 150.296 9.42614C150.37 9.30492 150.421 9.16667 150.45 9.01136L151.694 9.01705C151.662 9.28409 151.581 9.54167 151.452 9.78977C151.326 10.036 151.154 10.2566 150.938 10.4517C150.724 10.6449 150.469 10.7983 150.171 10.9119C149.876 11.0237 149.541 11.0795 149.168 11.0795C148.649 11.0795 148.185 10.9621 147.776 10.7273C147.369 10.4924 147.047 10.1525 146.81 9.70739C146.576 9.26231 146.458 8.72348 146.458 8.09091C146.458 7.45644 146.577 6.91667 146.816 6.47159C147.055 6.02652 147.379 5.6875 147.788 5.45455C148.197 5.2197 148.657 5.10227 149.168 5.10227C149.505 5.10227 149.818 5.14962 150.106 5.24432C150.396 5.33902 150.652 5.47727 150.876 5.65909C151.099 5.83901 151.281 6.05966 151.421 6.32102C151.563 6.58239 151.654 6.88163 151.694 7.21875ZM154.281 10.1136V6.09091H155.298V10.1136H154.281ZM152.778 8.6108V7.59375H156.8V8.6108H152.778ZM159.718 10.1136V6.09091H160.735V10.1136H159.718ZM158.215 8.6108V7.59375H162.238V8.6108H158.215Z" fill="white"/>
<g filter="url(#filter1_b_534_133)">
<rect x="63" width="58" height="15" rx="7.5" fill="#A2A2A2" fill-opacity="0.2"/>
</g>
<g filter="url(#filter2_b_534_133)">
<rect width="58" height="15" rx="7.5" fill="#A2A2A2" fill-opacity="0.2"/>
</g>
<path d="M15.5057 10V4.18182H17.8011C18.2424 4.18182 18.6184 4.2661 18.929 4.43466C19.2396 4.60133 19.4763 4.83333 19.6392 5.13068C19.804 5.42614 19.8864 5.76705 19.8864 6.15341C19.8864 6.53977 19.803 6.88068 19.6364 7.17614C19.4697 7.47159 19.2282 7.7017 18.9119 7.86648C18.5975 8.03125 18.2169 8.11364 17.7699 8.11364H16.3068V7.12784H17.571C17.8078 7.12784 18.0028 7.08712 18.1562 7.00568C18.3116 6.92235 18.4271 6.80777 18.5028 6.66193C18.5805 6.5142 18.6193 6.3447 18.6193 6.15341C18.6193 5.96023 18.5805 5.79167 18.5028 5.64773C18.4271 5.50189 18.3116 5.3892 18.1562 5.30966C18.0009 5.22822 17.804 5.1875 17.5653 5.1875H16.7358V10H15.5057ZM21.4098 11.6364C21.2564 11.6364 21.1125 11.6241 20.978 11.5994C20.8454 11.5767 20.7356 11.5473 20.6484 11.5114L20.9212 10.608C21.0632 10.6515 21.1911 10.6752 21.3047 10.679C21.4202 10.6828 21.5196 10.6563 21.603 10.5994C21.6882 10.5426 21.7573 10.446 21.8104 10.3097L21.8814 10.125L20.3161 5.63636H21.5888L22.4922 8.84091H22.5376L23.4496 5.63636H24.7308L23.0348 10.4716C22.9534 10.7064 22.8426 10.911 22.7024 11.0852C22.5642 11.2614 22.389 11.3968 22.1768 11.4915C21.9647 11.5881 21.709 11.6364 21.4098 11.6364ZM27.6712 5.63636V6.54545H25.0433V5.63636H27.6712ZM25.6399 4.59091H26.8501V8.65909C26.8501 8.77083 26.8672 8.85795 26.9013 8.92045C26.9354 8.98106 26.9827 9.02367 27.0433 9.0483C27.1058 9.07292 27.1778 9.08523 27.2592 9.08523C27.3161 9.08523 27.3729 9.08049 27.4297 9.07102C27.4865 9.05966 27.5301 9.05114 27.5604 9.04545L27.7507 9.94602C27.6901 9.96496 27.6049 9.98674 27.495 10.0114C27.3852 10.0379 27.2517 10.054 27.0945 10.0597C26.8028 10.071 26.5471 10.0322 26.3274 9.94318C26.1096 9.85417 25.9401 9.71591 25.8189 9.52841C25.6977 9.34091 25.638 9.10417 25.6399 8.81818V4.59091ZM29.7635 7.47727V10H28.5533V4.18182H29.7294V6.40625H29.7805C29.879 6.14867 30.0381 5.94697 30.2578 5.80114C30.4775 5.65341 30.7531 5.57955 31.0845 5.57955C31.3875 5.57955 31.6518 5.64583 31.8771 5.77841C32.1044 5.90909 32.2805 6.09754 32.4055 6.34375C32.5324 6.58807 32.5949 6.88068 32.593 7.22159V10H31.3828V7.4375C31.3847 7.16856 31.3165 6.95928 31.1783 6.80966C31.0419 6.66004 30.8506 6.58523 30.6044 6.58523C30.4396 6.58523 30.2938 6.62027 30.1669 6.69034C30.0419 6.76042 29.9434 6.86269 29.8714 6.99716C29.8014 7.12973 29.7654 7.28977 29.7635 7.47727ZM35.517 10.0852C35.0758 10.0852 34.6941 9.99148 34.3722 9.80398C34.0521 9.61458 33.8049 9.35133 33.6307 9.0142C33.4564 8.67519 33.3693 8.2822 33.3693 7.83523C33.3693 7.38447 33.4564 6.99053 33.6307 6.65341C33.8049 6.31439 34.0521 6.05114 34.3722 5.86364C34.6941 5.67424 35.0758 5.57955 35.517 5.57955C35.9583 5.57955 36.339 5.67424 36.6591 5.86364C36.9811 6.05114 37.2292 6.31439 37.4034 6.65341C37.5777 6.99053 37.6648 7.38447 37.6648 7.83523C37.6648 8.2822 37.5777 8.67519 37.4034 9.0142C37.2292 9.35133 36.9811 9.61458 36.6591 9.80398C36.339 9.99148 35.9583 10.0852 35.517 10.0852ZM35.5227 9.14773C35.7235 9.14773 35.8911 9.09091 36.0256 8.97727C36.16 8.86174 36.2614 8.70455 36.3295 8.50568C36.3996 8.30682 36.4347 8.08049 36.4347 7.8267C36.4347 7.57292 36.3996 7.34659 36.3295 7.14773C36.2614 6.94886 36.16 6.79167 36.0256 6.67614C35.8911 6.56061 35.7235 6.50284 35.5227 6.50284C35.3201 6.50284 35.1496 6.56061 35.0114 6.67614C34.875 6.79167 34.7718 6.94886 34.7017 7.14773C34.6335 7.34659 34.5994 7.57292 34.5994 7.8267C34.5994 8.08049 34.6335 8.30682 34.7017 8.50568C34.7718 8.70455 34.875 8.86174 35.0114 8.97727C35.1496 9.09091 35.3201 9.14773 35.5227 9.14773ZM39.6619 7.47727V10H38.4517V5.63636H39.6051V6.40625H39.6562C39.7528 6.15246 39.9148 5.9517 40.142 5.80398C40.3693 5.65436 40.6449 5.57955 40.9688 5.57955C41.2718 5.57955 41.536 5.64583 41.7614 5.77841C41.9867 5.91098 42.1619 6.10038 42.2869 6.34659C42.4119 6.59091 42.4744 6.88258 42.4744 7.22159V10H41.2642V7.4375C41.2661 7.17045 41.1979 6.96212 41.0597 6.8125C40.9214 6.66098 40.7311 6.58523 40.4886 6.58523C40.3258 6.58523 40.1818 6.62027 40.0568 6.69034C39.9337 6.76042 39.8371 6.86269 39.767 6.99716C39.6989 7.12973 39.6638 7.28977 39.6619 7.47727Z" fill="white"/>
<path d="M24.0392 45L27.0542 39.0341V38.9844H23.5421V37.7273H28.6451V39.0021L25.6266 45H24.0392ZM32.3942 45.1598C31.7834 45.1574 31.2578 45.0071 30.8175 44.7088C30.3795 44.4105 30.0421 43.9785 29.8054 43.4126C29.571 42.8468 29.455 42.1662 29.4574 41.3707C29.4574 40.5777 29.5746 39.9018 29.8089 39.343C30.0457 38.7843 30.383 38.3594 30.821 38.0682C31.2614 37.7746 31.7857 37.6278 32.3942 37.6278C33.0026 37.6278 33.5258 37.7746 33.9638 38.0682C34.4041 38.3617 34.7427 38.7879 34.9794 39.3466C35.2161 39.9029 35.3333 40.5777 35.331 41.3707C35.331 42.1686 35.2126 42.8504 34.9759 43.4162C34.7415 43.982 34.4053 44.4141 33.9673 44.7124C33.5294 45.0107 33.005 45.1598 32.3942 45.1598ZM32.3942 43.8849C32.8108 43.8849 33.1435 43.6754 33.392 43.2564C33.6406 42.8374 33.7637 42.2088 33.7614 41.3707C33.7614 40.8191 33.7045 40.3598 33.5909 39.9929C33.4796 39.6259 33.321 39.3501 33.1151 39.1655C32.9115 38.9808 32.6712 38.8885 32.3942 38.8885C31.9799 38.8885 31.6484 39.0956 31.3999 39.5099C31.1513 39.9242 31.0258 40.5445 31.0234 41.3707C31.0234 41.9295 31.0791 42.3958 31.1903 42.7699C31.304 43.1416 31.4638 43.4209 31.6697 43.608C31.8757 43.7926 32.1172 43.8849 32.3942 43.8849Z" fill="#FFCC4D"/>
<path d="M85.9977 45V43.892L88.5865 41.495C88.8066 41.282 88.9913 41.0902 89.1404 40.9197C89.292 40.7493 89.4068 40.5824 89.4849 40.419C89.563 40.2533 89.6021 40.0746 89.6021 39.8828C89.6021 39.6697 89.5536 39.4863 89.4565 39.3324C89.3594 39.1761 89.2269 39.0566 89.0588 38.9737C88.8907 38.8885 88.7001 38.8459 88.487 38.8459C88.2645 38.8459 88.0704 38.8909 87.9047 38.9808C87.7389 39.0708 87.6111 39.1998 87.5211 39.3679C87.4312 39.536 87.3862 39.736 87.3862 39.968H85.9267C85.9267 39.4922 86.0344 39.0791 86.2498 38.7287C86.4653 38.3783 86.7671 38.1072 87.1554 37.9155C87.5436 37.7237 87.9911 37.6278 88.4977 37.6278C89.0185 37.6278 89.4719 37.7202 89.8578 37.9048C90.246 38.0871 90.5479 38.3404 90.7633 38.6648C90.9788 38.9891 91.0865 39.3608 91.0865 39.7798C91.0865 40.0545 91.032 40.3255 90.9231 40.593C90.8166 40.8606 90.626 41.1577 90.3514 41.4844C90.0768 41.8087 89.6897 42.1982 89.1902 42.6527L88.1284 43.6932V43.7429H91.1824V45H85.9977ZM95.1481 45.1598C94.5373 45.1574 94.0117 45.0071 93.5714 44.7088C93.1334 44.4105 92.796 43.9785 92.5593 43.4126C92.3249 42.8468 92.2089 42.1662 92.2113 41.3707C92.2113 40.5777 92.3285 39.9018 92.5629 39.343C92.7996 38.7843 93.137 38.3594 93.5749 38.0682C94.0153 37.7746 94.5397 37.6278 95.1481 37.6278C95.7565 37.6278 96.2797 37.7746 96.7177 38.0682C97.158 38.3617 97.4966 38.7879 97.7333 39.3466C97.9701 39.9029 98.0872 40.5777 98.0849 41.3707C98.0849 42.1686 97.9665 42.8504 97.7298 43.4162C97.4954 43.982 97.1592 44.4141 96.7212 44.7124C96.2833 45.0107 95.7589 45.1598 95.1481 45.1598ZM95.1481 43.8849C95.5647 43.8849 95.8974 43.6754 96.146 43.2564C96.3945 42.8374 96.5176 42.2088 96.5153 41.3707C96.5153 40.8191 96.4585 40.3598 96.3448 39.9929C96.2335 39.6259 96.0749 39.3501 95.869 39.1655C95.6654 38.9808 95.4251 38.8885 95.1481 38.8885C94.7338 38.8885 94.4023 39.0956 94.1538 39.5099C93.9052 39.9242 93.7797 40.5445 93.7773 41.3707C93.7773 41.9295 93.833 42.3958 93.9442 42.7699C94.0579 43.1416 94.2177 43.4209 94.4237 43.608C94.6296 43.7926 94.8711 43.8849 95.1481 43.8849Z" fill="#51CF8B"/>
<path d="M152.865 37.7273V45H151.327V39.1868H151.285L149.619 40.2308V38.8672L151.42 37.7273H152.865ZM157.445 45.1598C156.834 45.1574 156.309 45.0071 155.868 44.7088C155.43 44.4105 155.093 43.9785 154.856 43.4126C154.622 42.8468 154.506 42.1662 154.508 41.3707C154.508 40.5777 154.625 39.9018 154.86 39.343C155.096 38.7843 155.434 38.3594 155.872 38.0682C156.312 37.7746 156.837 37.6278 157.445 37.6278C158.053 37.6278 158.577 37.7746 159.015 38.0682C159.455 38.3617 159.793 38.7879 160.03 39.3466C160.267 39.9029 160.384 40.5777 160.382 41.3707C160.382 42.1686 160.263 42.8504 160.027 43.4162C159.792 43.982 159.456 44.4141 159.018 44.7124C158.58 45.0107 158.056 45.1598 157.445 45.1598ZM157.445 43.8849C157.862 43.8849 158.194 43.6754 158.443 43.2564C158.691 42.8374 158.815 42.2088 158.812 41.3707C158.812 40.8191 158.755 40.3598 158.642 39.9929C158.53 39.6259 158.372 39.3501 158.166 39.1655C157.962 38.9808 157.722 38.8885 157.445 38.8885C157.031 38.8885 156.699 39.0956 156.451 39.5099C156.202 39.9242 156.077 40.5445 156.074 41.3707C156.074 41.9295 156.13 42.3958 156.241 42.7699C156.355 43.1416 156.515 43.4209 156.721 43.608C156.926 43.7926 157.168 43.8849 157.445 43.8849Z" fill="#DC54DF"/>
<path d="M70.2841 5.19602V4.18182H75.0625V5.19602H73.2812V10H72.0653V5.19602H70.2841ZM76.0739 11.6364C75.9205 11.6364 75.7765 11.6241 75.642 11.5994C75.5095 11.5767 75.3996 11.5473 75.3125 11.5114L75.5852 10.608C75.7273 10.6515 75.8551 10.6752 75.9688 10.679C76.0843 10.6828 76.1837 10.6563 76.267 10.5994C76.3523 10.5426 76.4214 10.446 76.4744 10.3097L76.5455 10.125L74.9801 5.63636H76.2528L77.1562 8.84091H77.2017L78.1136 5.63636H79.3949L77.6989 10.4716C77.6174 10.7064 77.5066 10.911 77.3665 11.0852C77.2282 11.2614 77.053 11.3968 76.8409 11.4915C76.6288 11.5881 76.3731 11.6364 76.0739 11.6364ZM80.0142 11.6364V5.63636H81.2074V6.36932H81.2614C81.3144 6.25189 81.3911 6.13258 81.4915 6.01136C81.5938 5.88826 81.7263 5.78598 81.8892 5.70455C82.054 5.62121 82.2585 5.57955 82.5028 5.57955C82.821 5.57955 83.1146 5.66288 83.3835 5.82955C83.6525 5.99432 83.8674 6.24337 84.0284 6.5767C84.1894 6.90814 84.2699 7.32386 84.2699 7.82386C84.2699 8.31061 84.1913 8.72159 84.0341 9.05682C83.8788 9.39015 83.6667 9.64299 83.3977 9.81534C83.1307 9.9858 82.8314 10.071 82.5 10.071C82.2652 10.071 82.0653 10.0322 81.9006 9.95455C81.7377 9.87689 81.6042 9.77936 81.5 9.66193C81.3958 9.54261 81.3163 9.42235 81.2614 9.30114H81.2244V11.6364H80.0142ZM81.1989 7.81818C81.1989 8.07765 81.2348 8.30398 81.3068 8.49716C81.3788 8.69034 81.483 8.84091 81.6193 8.94886C81.7557 9.05492 81.9214 9.10795 82.1165 9.10795C82.3134 9.10795 82.4801 9.05398 82.6165 8.94602C82.7528 8.83617 82.8561 8.68466 82.9261 8.49148C82.9981 8.2964 83.0341 8.07197 83.0341 7.81818C83.0341 7.56629 82.9991 7.3447 82.929 7.15341C82.8589 6.96212 82.7557 6.8125 82.6193 6.70455C82.483 6.59659 82.3153 6.54261 82.1165 6.54261C81.9195 6.54261 81.7528 6.5947 81.6165 6.69886C81.482 6.80303 81.3788 6.95076 81.3068 7.14205C81.2348 7.33333 81.1989 7.55871 81.1989 7.81818ZM87.0653 10.0852C86.6165 10.0852 86.2301 9.99432 85.9062 9.8125C85.5843 9.62879 85.3362 9.36932 85.1619 9.03409C84.9877 8.69697 84.9006 8.2983 84.9006 7.83807C84.9006 7.3892 84.9877 6.99527 85.1619 6.65625C85.3362 6.31723 85.5814 6.05303 85.8977 5.86364C86.2159 5.67424 86.589 5.57955 87.017 5.57955C87.3049 5.57955 87.5729 5.62595 87.821 5.71875C88.071 5.80966 88.2888 5.94697 88.4744 6.13068C88.6619 6.31439 88.8078 6.54545 88.9119 6.82386C89.0161 7.10038 89.0682 7.42424 89.0682 7.79545V8.12784H85.3835V7.37784H87.929C87.929 7.2036 87.8911 7.04924 87.8153 6.91477C87.7396 6.7803 87.6345 6.67519 87.5 6.59943C87.3674 6.52178 87.2131 6.48295 87.0369 6.48295C86.8532 6.48295 86.6903 6.52557 86.5483 6.6108C86.4081 6.69413 86.2983 6.80682 86.2188 6.94886C86.1392 7.08902 86.0985 7.24527 86.0966 7.41761V8.13068C86.0966 8.34659 86.1364 8.53314 86.2159 8.69034C86.2973 8.84754 86.4119 8.96875 86.5597 9.05398C86.7074 9.1392 86.8826 9.18182 87.0852 9.18182C87.2197 9.18182 87.3428 9.16288 87.4545 9.125C87.5663 9.08712 87.6619 9.0303 87.7415 8.95455C87.821 8.87879 87.8816 8.78598 87.9233 8.67614L89.0426 8.75C88.9858 9.01894 88.8693 9.25379 88.6932 9.45455C88.5189 9.65341 88.2936 9.80871 88.017 9.92045C87.7424 10.0303 87.4252 10.0852 87.0653 10.0852ZM93.4886 6.88068L92.3807 6.94886C92.3617 6.85417 92.321 6.76894 92.2585 6.69318C92.196 6.61553 92.1136 6.55398 92.0114 6.50852C91.911 6.46117 91.7907 6.4375 91.6506 6.4375C91.4631 6.4375 91.3049 6.47727 91.1761 6.55682C91.0473 6.63447 90.983 6.73864 90.983 6.86932C90.983 6.97348 91.0246 7.06155 91.108 7.13352C91.1913 7.20549 91.3343 7.26326 91.5369 7.30682L92.3267 7.46591C92.7509 7.55303 93.0672 7.69318 93.2756 7.88636C93.4839 8.07955 93.5881 8.33333 93.5881 8.64773C93.5881 8.93371 93.5038 9.18466 93.3352 9.40057C93.1686 9.61648 92.9394 9.78504 92.6477 9.90625C92.358 10.0256 92.0237 10.0852 91.6449 10.0852C91.0672 10.0852 90.607 9.96496 90.2642 9.72443C89.9233 9.48201 89.7235 9.15246 89.6648 8.7358L90.8551 8.6733C90.8911 8.84943 90.9782 8.9839 91.1165 9.0767C91.2547 9.16761 91.4318 9.21307 91.6477 9.21307C91.8598 9.21307 92.0303 9.17235 92.1591 9.09091C92.2898 9.00758 92.3561 8.90057 92.358 8.76989C92.3561 8.66004 92.3097 8.57008 92.2188 8.5C92.1278 8.42803 91.9877 8.37311 91.7983 8.33523L91.0426 8.18466C90.6165 8.09943 90.2992 7.9517 90.0909 7.74148C89.8845 7.53125 89.7812 7.26326 89.7812 6.9375C89.7812 6.6572 89.857 6.41572 90.0085 6.21307C90.1619 6.01042 90.3769 5.85417 90.6534 5.74432C90.9318 5.63447 91.2576 5.57955 91.6307 5.57955C92.1818 5.57955 92.6155 5.69602 92.9318 5.92898C93.25 6.16193 93.4356 6.47917 93.4886 6.88068ZM96.3217 10.0852C95.8748 10.0852 95.4903 9.99053 95.1683 9.80114C94.8482 9.60985 94.602 9.3447 94.4297 9.00568C94.2592 8.66667 94.174 8.27652 94.174 7.83523C94.174 7.38826 94.2602 6.99621 94.4325 6.65909C94.6068 6.32008 94.8539 6.05587 95.174 5.86648C95.4941 5.67519 95.8748 5.57955 96.3161 5.57955C96.6967 5.57955 97.0301 5.64867 97.3161 5.78693C97.602 5.92519 97.8284 6.11932 97.995 6.36932C98.1617 6.61932 98.2536 6.91288 98.2706 7.25H97.1286C97.0964 7.0322 97.0111 6.85701 96.8729 6.72443C96.7365 6.58996 96.5575 6.52273 96.3359 6.52273C96.1484 6.52273 95.9846 6.57386 95.8445 6.67614C95.7062 6.77652 95.5982 6.9233 95.5206 7.11648C95.4429 7.30966 95.4041 7.54356 95.4041 7.81818C95.4041 8.09659 95.442 8.33333 95.5178 8.52841C95.5954 8.72348 95.7043 8.87216 95.8445 8.97443C95.9846 9.0767 96.1484 9.12784 96.3359 9.12784C96.4742 9.12784 96.5982 9.09943 96.7081 9.04261C96.8198 8.9858 96.9117 8.90341 96.9837 8.79545C97.0575 8.68561 97.1058 8.55398 97.1286 8.40057H98.2706C98.2517 8.7339 98.1607 9.02746 97.9979 9.28125C97.8369 9.53314 97.6143 9.73011 97.3303 9.87216C97.0462 10.0142 96.71 10.0852 96.3217 10.0852ZM99.0455 10V5.63636H100.219V6.39773H100.264C100.344 6.12689 100.477 5.92235 100.665 5.78409C100.852 5.64394 101.068 5.57386 101.312 5.57386C101.373 5.57386 101.438 5.57765 101.509 5.58523C101.579 5.5928 101.64 5.60322 101.693 5.61648V6.69034C101.636 6.6733 101.558 6.65814 101.457 6.64489C101.357 6.63163 101.265 6.625 101.182 6.625C101.004 6.625 100.845 6.66383 100.705 6.74148C100.566 6.81723 100.456 6.9233 100.375 7.05966C100.295 7.19602 100.256 7.35322 100.256 7.53125V10H99.0455ZM102.319 10V5.63636H103.529V10H102.319ZM102.927 5.07386C102.747 5.07386 102.593 5.0142 102.464 4.89489C102.337 4.77367 102.273 4.62879 102.273 4.46023C102.273 4.29356 102.337 4.15057 102.464 4.03125C102.593 3.91004 102.747 3.84943 102.927 3.84943C103.107 3.84943 103.26 3.91004 103.387 4.03125C103.516 4.15057 103.58 4.29356 103.58 4.46023C103.58 4.62879 103.516 4.77367 103.387 4.89489C103.26 5.0142 103.107 5.07386 102.927 5.07386ZM104.499 11.6364V5.63636H105.692V6.36932H105.746C105.799 6.25189 105.875 6.13258 105.976 6.01136C106.078 5.88826 106.211 5.78598 106.374 5.70455C106.538 5.62121 106.743 5.57955 106.987 5.57955C107.305 5.57955 107.599 5.66288 107.868 5.82955C108.137 5.99432 108.352 6.24337 108.513 6.5767C108.674 6.90814 108.754 7.32386 108.754 7.82386C108.754 8.31061 108.676 8.72159 108.518 9.05682C108.363 9.39015 108.151 9.64299 107.882 9.81534C107.615 9.9858 107.316 10.071 106.984 10.071C106.75 10.071 106.55 10.0322 106.385 9.95455C106.222 9.87689 106.089 9.77936 105.984 9.66193C105.88 9.54261 105.801 9.42235 105.746 9.30114H105.709V11.6364H104.499ZM105.683 7.81818C105.683 8.07765 105.719 8.30398 105.791 8.49716C105.863 8.69034 105.967 8.84091 106.104 8.94886C106.24 9.05492 106.406 9.10795 106.601 9.10795C106.798 9.10795 106.964 9.05398 107.101 8.94602C107.237 8.83617 107.34 8.68466 107.411 8.49148C107.482 8.2964 107.518 8.07197 107.518 7.81818C107.518 7.56629 107.483 7.3447 107.413 7.15341C107.343 6.96212 107.24 6.8125 107.104 6.70455C106.967 6.59659 106.8 6.54261 106.601 6.54261C106.404 6.54261 106.237 6.5947 106.101 6.69886C105.966 6.80303 105.863 6.95076 105.791 7.14205C105.719 7.33333 105.683 7.55871 105.683 7.81818ZM111.882 5.63636V6.54545H109.254V5.63636H111.882ZM109.851 4.59091H111.061V8.65909C111.061 8.77083 111.078 8.85795 111.112 8.92045C111.146 8.98106 111.194 9.02367 111.254 9.0483C111.317 9.07292 111.389 9.08523 111.47 9.08523C111.527 9.08523 111.584 9.08049 111.641 9.07102C111.697 9.05966 111.741 9.05114 111.771 9.04545L111.962 9.94602C111.901 9.96496 111.816 9.98674 111.706 10.0114C111.596 10.0379 111.463 10.054 111.305 10.0597C111.014 10.071 110.758 10.0322 110.538 9.94318C110.321 9.85417 110.151 9.71591 110.03 9.52841C109.909 9.34091 109.849 9.10417 109.851 8.81818V4.59091Z" fill="white"/>
<defs>
<filter id="filter0_b_534_133" x="76" y="-50" width="158" height="115" filterUnits="userSpaceOnUse" color-interpolation-filters="sRGB">
<feFlood flood-opacity="0" result="BackgroundImageFix"/>
<feGaussianBlur in="BackgroundImageFix" stdDeviation="25"/>
<feComposite in2="SourceAlpha" operator="in" result="effect1_backgroundBlur_534_133"/>
<feBlend mode="normal" in="SourceGraphic" in2="effect1_backgroundBlur_534_133" result="shape"/>
</filter>
<filter id="filter1_b_534_133" x="13" y="-50" width="158" height="115" filterUnits="userSpaceOnUse" color-interpolation-filters="sRGB">
<feFlood flood-opacity="0" result="BackgroundImageFix"/>
<feGaussianBlur in="BackgroundImageFix" stdDeviation="25"/>
<feComposite in2="SourceAlpha" operator="in" result="effect1_backgroundBlur_534_133"/>
<feBlend mode="normal" in="SourceGraphic" in2="effect1_backgroundBlur_534_133" result="shape"/>
</filter>
<filter id="filter2_b_534_133" x="-50" y="-50" width="158" height="115" filterUnits="userSpaceOnUse" color-interpolation-filters="sRGB">
<feFlood flood-opacity="0" result="BackgroundImageFix"/>
<feGaussianBlur in="BackgroundImageFix" stdDeviation="25"/>
<feComposite in2="SourceAlpha" operator="in" result="effect1_backgroundBlur_534_133"/>
<feBlend mode="normal" in="SourceGraphic" in2="effect1_backgroundBlur_534_133" result="shape"/>
</filter>
</defs>
</svg>
