<svg width="64" height="63" viewBox="0 0 64 63" fill="none" xmlns="http://www.w3.org/2000/svg">
<path fill-rule="evenodd" clip-rule="evenodd" d="M32 0.07547C14.3617 0.07547 0.0754395 14.4114 0.0754395 32.1111C0.0754395 46.2868 9.21383 58.2601 21.9038 62.5048C23.5001 62.7851 24.0986 61.8241 24.0986 60.9831C24.0986 60.2223 24.0587 57.6995 24.0587 55.0165C16.0377 56.4982 13.9626 53.0543 13.3241 51.2523C12.965 50.3313 11.4086 47.4882 10.0519 46.7273C8.9345 46.1266 7.33827 44.645 10.0119 44.605C12.526 44.5649 14.3218 46.9275 14.9203 47.8886C17.7936 52.734 22.3827 51.3725 24.2184 50.5315C24.4977 48.4492 25.3357 47.0477 26.2536 46.2468C19.1503 45.4459 11.7279 42.6828 11.7279 30.4292C11.7279 26.9453 12.965 24.0621 15.0002 21.8196C14.6809 21.0187 13.5636 17.7351 15.3194 13.3302C15.3194 13.3302 17.9931 12.4893 24.0986 16.6138C26.6526 15.893 29.3662 15.5326 32.0798 15.5326C34.7934 15.5326 37.5069 15.893 40.0609 16.6138C46.1665 12.4492 48.8402 13.3302 48.8402 13.3302C50.596 17.7351 49.4787 21.0187 49.1594 21.8196C51.1946 24.0621 52.4317 26.9053 52.4317 30.4292C52.4317 42.7229 44.9693 45.4459 37.8661 46.2468C39.0234 47.2479 40.021 49.17 40.021 52.1734C40.021 56.4581 39.9811 59.9019 39.9811 60.9831C39.9811 61.8241 40.5797 62.8252 42.1759 62.5048C48.5134 60.3577 54.0204 56.2704 57.9218 50.8182C61.8232 45.3659 63.9226 38.8233 63.9245 32.1111C63.9245 14.4114 49.6383 0.07547 32 0.07547Z" fill="white"/>
</svg>
