<svg width="31" height="42" viewBox="0 0 31 42" fill="none" xmlns="http://www.w3.org/2000/svg">
<path d="M24.1424 41.9789C25.2036 41.9726 26.2516 41.7392 27.2176 41.2939C28.2625 40.8271 29.1526 40.0654 29.7819 39.0996C30.4111 38.1339 30.7527 37.005 30.766 35.8478V7.00761C30.7527 5.85039 30.4111 4.72151 29.7819 3.75579C29.1526 2.79007 28.2625 2.02832 27.2176 1.56154C26.0154 0.985992 24.6779 0.764316 23.3574 0.921769C22.037 1.07922 20.7867 1.60947 19.7491 2.45209L2.51408 16.8722C1.83821 17.4175 1.2924 18.1104 0.917243 18.8991C0.54209 19.6878 0.34726 20.5521 0.34726 21.4277C0.34726 22.3033 0.54209 23.1676 0.917243 23.9563C1.2924 24.7451 1.83821 25.4379 2.51408 25.9832L19.7491 40.4033C20.9915 41.4245 22.5428 41.9809 24.1424 41.9789Z" fill="white"/>
</svg>
